<?xml version="1.0" encoding="UTF-8" standalone="no"?>
<svg
   xmlns:dc="http://purl.org/dc/elements/1.1/"
   xmlns:cc="http://creativecommons.org/ns#"
   xmlns:rdf="http://www.w3.org/1999/02/22-rdf-syntax-ns#"
   xmlns:svg="http://www.w3.org/2000/svg"
   xmlns="http://www.w3.org/2000/svg"
   xmlns:sodipodi="http://sodipodi.sourceforge.net/DTD/sodipodi-0.dtd"
   xmlns:inkscape="http://www.inkscape.org/namespaces/inkscape"
   width="2000pt"
   height="2000pt"
   viewBox="0 0 2000 2000"
   version="1.1"
   id="svg2"
   inkscape:version="0.91 r13725"
   sodipodi:docname="SparseConfetti.svg">
  <metadata
     id="metadata348">
    <rdf:RDF>
      <cc:Work
         rdf:about="">
        <dc:format>image/svg+xml</dc:format>
        <dc:type
           rdf:resource="http://purl.org/dc/dcmitype/StillImage" />
        <dc:title />
      </cc:Work>
    </rdf:RDF>
  </metadata>
  <defs
     id="defs346" />
  <sodipodi:namedview
     pagecolor="#ffffff"
     bordercolor="#666666"
     borderopacity="1"
     objecttolerance="10"
     gridtolerance="10"
     guidetolerance="10"
     inkscape:pageopacity="0"
     inkscape:pageshadow="2"
     inkscape:window-width="1600"
     inkscape:window-height="837"
     id="namedview344"
     showgrid="false"
     inkscape:zoom="0.268"
     inkscape:cx="613.80597"
     inkscape:cy="1250"
     inkscape:window-x="-8"
     inkscape:window-y="-8"
     inkscape:window-maximized="1"
     inkscape:current-layer="svg2" />
  <g
     id="g8446">
    <path
       id="path4"
       d=" M 1895.10 11.84 C 1903.78 15.64 1911.48 21.36 1920.10 25.36 C 1913.57 42.93 1905.36 59.89 1898.26 77.25 C 1897.91 55.42 1895.96 33.65 1895.10 11.84 Z"
       opacity="1.00"
       fill="#5c0a15" />
    <path
       id="path6"
       d=" M 1611.21 25.75 C 1616.86 36.38 1621.37 47.58 1626.87 58.30 C 1626.91 58.69 1626.99 59.47 1627.04 59.86 C 1625.09 59.56 1623.16 59.25 1621.22 59.21 C 1613.46 58.93 1605.72 59.00 1597.99 59.01 C 1602.43 47.93 1606.88 36.86 1611.21 25.75 Z"
       opacity="1.00"
       fill="#a1c197" />
    <path
       id="path8"
       d=" M 1278.24 38.81 C 1293.01 50.81 1306.43 64.43 1321.25 76.40 C 1299.78 97.45 1278.85 119.33 1256.91 139.97 C 1263.64 106.19 1270.48 72.36 1278.24 38.81 Z"
       opacity="1.00"
       fill="#b7afa5" />
    <path
       id="path10"
       d=" M 1626.87 58.30 C 1651.42 51.78 1676.13 45.26 1700.99 39.94 C 1676.50 66.76 1650.74 92.41 1625.12 118.14 C 1622.00 99.11 1618.55 80.12 1615.87 61.02 C 1617.62 60.36 1619.39 59.70 1621.22 59.21 C 1623.16 59.25 1625.09 59.56 1627.04 59.86 C 1626.99 59.47 1626.91 58.69 1626.87 58.30 Z"
       opacity="1.00"
       fill="#328461" />
    <path
       id="path12"
       d=" M 595.91 84.03 C 618.48 69.74 641.80 56.49 664.75 42.74 C 658.75 73.26 652.35 103.69 646.62 134.26 C 628.98 118.34 612.52 101.00 595.91 84.03 Z"
       opacity="1.00"
       fill="#34af26" />
    <path
       id="path14"
       d=" M 537.37 106.37 C 550.42 86.34 562.26 65.50 576.00 45.94 C 563.57 80.38 548.91 114.16 535.28 148.18 C 535.50 134.39 526.74 117.98 537.37 106.37 Z"
       opacity="1.00"
       fill="#5c24f7" />
    <path
       id="path16"
       d=" M 355.00 142.78 C 369.45 122.14 384.09 101.54 399.50 81.60 C 402.81 109.47 407.00 137.25 411.02 165.03 C 392.05 158.42 373.76 149.97 355.00 142.78 Z"
       opacity="1.00"
       fill="#d06799" />
    <path
       id="path18"
       d=" M 709.86 106.08 C 714.56 136.01 719.16 165.98 722.98 196.03 C 698.02 176.63 672.74 157.65 647.80 138.24 C 668.30 127.15 689.12 116.69 709.86 106.08 Z"
       opacity="1.00"
       fill="#1ff9d0" />
    <path
       id="path20"
       d=" M 1049.29 152.82 C 1050.22 154.55 1051.05 156.34 1051.81 158.16 C 1053.93 163.96 1056.23 169.68 1058.62 175.37 C 1060.51 180.39 1062.50 185.36 1064.72 190.24 C 1073.28 213.38 1083.32 235.94 1092.14 258.98 C 1092.47 259.93 1092.82 260.88 1093.17 261.84 C 1091.76 261.63 1090.38 261.41 1089.00 261.26 C 1081.39 260.48 1073.80 259.70 1066.23 258.75 C 1041.79 255.64 1017.31 252.85 992.87 249.77 C 1005.57 226.25 1019.94 203.61 1033.14 180.35 C 1037.73 172.57 1042.40 164.84 1046.88 157.00 C 1047.68 155.61 1048.47 154.21 1049.29 152.82 Z"
       opacity="1.00"
       fill="#8f7c39" />
    <path
       id="path22"
       d=" M 1014.88 154.05 C 1025.62 154.04 1036.16 156.52 1046.88 157.00 C 1042.40 164.84 1037.73 172.57 1033.14 180.35 C 1026.27 172.19 1021.10 162.72 1014.88 154.05 Z"
       opacity="1.00"
       fill="#1f929d" />
    <path
       id="path24"
       d=" M 1386.06 156.88 C 1419.10 176.04 1451.71 195.96 1484.58 215.43 C 1488.21 216.75 1485.61 220.16 1485.27 222.77 C 1464.21 254.48 1446.74 288.62 1427.08 321.27 C 1424.03 312.33 1422.59 302.96 1419.85 293.95 C 1414.07 269.63 1407.78 245.43 1401.82 221.17 C 1396.63 199.72 1390.61 178.46 1386.06 156.88 Z"
       opacity="1.00"
       fill="#a9850e" />
    <path
       id="path26"
       d=" M 1051.81 158.16 C 1054.27 158.02 1056.72 158.38 1059.12 158.95 C 1059.00 164.42 1058.84 169.90 1058.62 175.37 C 1056.23 169.68 1053.93 163.96 1051.81 158.16 Z"
       opacity="1.00"
       fill="#1f929d" />
    <path
       id="path28"
       d=" M 1787.92 170.96 C 1803.85 166.96 1820.02 163.94 1835.97 159.98 C 1827.55 175.77 1819.84 192.82 1810.92 207.85 C 1802.65 196.97 1795.90 182.92 1787.92 170.96 Z"
       opacity="1.00"
       fill="#5d2dff" />
    <path
       id="path30"
       d=" M 1183.77 165.11 C 1184.19 180.06 1183.95 195.01 1183.98 209.96 C 1164.88 209.96 1145.80 211.17 1126.75 212.20 L 1125.98 211.88 C 1144.54 195.49 1164.78 181.04 1183.77 165.11 Z"
       opacity="1.00"
       fill="#b3e1e3" />
    <path
       id="path32"
       d=" M 1635.05 169.92 C 1660.22 176.33 1685.19 183.53 1710.28 190.30 C 1689.17 207.27 1667.30 223.27 1646.01 240.01 C 1642.13 216.68 1638.86 193.26 1635.05 169.92 Z"
       opacity="1.00"
       fill="#3e9881" />
    <path
       id="path34"
       d=" M 1287.03 170.84 C 1294.19 177.57 1301.23 184.46 1307.95 191.65 C 1295.92 200.30 1285.23 210.66 1273.16 219.24 C 1277.03 202.92 1282.41 186.96 1287.03 170.84 Z"
       opacity="1.00"
       fill="#35bc23" />
    <path
       id="path36"
       d=" M 1064.07 183.90 C 1085.01 192.50 1105.16 202.96 1125.98 211.88 L 1126.75 212.20 C 1132.40 216.37 1142.24 217.11 1145.85 222.79 C 1127.81 234.63 1110.57 247.77 1092.14 258.98 C 1083.32 235.94 1073.28 213.38 1064.72 190.24 C 1064.43 188.13 1064.24 186.01 1064.07 183.90 Z"
       opacity="1.00"
       fill="#ef491a" />
    <path
       id="path38"
       d=" M 1784.07 190.91 C 1791.25 197.43 1797.90 204.52 1804.86 211.29 C 1812.63 219.38 1821.02 226.88 1828.30 235.45 C 1822.10 236.40 1815.98 237.78 1809.84 238.91 C 1801.13 240.28 1792.45 241.78 1783.90 243.88 C 1784.13 226.22 1783.85 208.56 1784.07 190.91 Z"
       opacity="1.00"
       fill="#39264d" />
    <path
       id="path40"
       d=" M 1211.02 198.95 C 1231.58 224.40 1252.09 249.92 1272.07 275.82 C 1256.01 279.73 1239.94 283.55 1224.05 288.05 C 1219.63 258.36 1214.68 228.73 1211.02 198.95 Z"
       opacity="1.00"
       fill="#d496a0" />
    <path
       id="path42"
       d=" M 1804.86 211.29 C 1815.30 208.45 1825.60 205.09 1835.96 201.94 C 1835.75 222.76 1833.34 243.49 1832.68 264.30 C 1824.64 256.26 1816.48 248.15 1809.84 238.91 C 1815.98 237.78 1822.10 236.40 1828.30 235.45 C 1821.02 226.88 1812.63 219.38 1804.86 211.29 Z"
       opacity="1.00"
       fill="#bfaffd" />
    <path
       id="path44"
       d=" M 1393.90 221.07 C 1396.52 221.06 1399.16 221.10 1401.82 221.17 C 1407.78 245.43 1414.07 269.63 1419.85 293.95 C 1419.60 294.29 1419.10 294.99 1418.86 295.34 C 1409.29 271.04 1402.63 245.69 1393.90 221.07 Z"
       opacity="1.00"
       fill="#50e3c6" />
    <path
       id="path46"
       d=" M 1525.11 241.86 C 1543.33 249.10 1560.89 257.91 1579.06 265.28 C 1577.52 266.97 1575.88 268.57 1574.14 270.04 C 1558.46 267.81 1542.59 269.99 1526.89 268.14 C 1525.38 259.44 1526.45 250.58 1525.11 241.86 Z"
       opacity="1.00"
       fill="#cbee88" />
    <path
       id="path48"
       d=" M 1804.98 287.39 C 1837.46 276.73 1869.47 264.66 1901.93 253.91 C 1898.96 284.40 1894.09 314.68 1890.74 345.14 C 1862.19 325.90 1832.95 307.38 1804.98 287.39 Z"
       opacity="1.00"
       fill="#90fb5a" />
    <path
       id="path50"
       d=" M 1648.00 254.95 C 1663.03 258.86 1677.78 263.90 1692.71 268.27 C 1688.47 275.47 1679.37 281.01 1672.98 287.09 C 1664.51 276.49 1655.59 266.19 1648.00 254.95 Z"
       opacity="1.00"
       fill="#1f6c6f" />
    <path
       id="path52"
       d=" M 1066.23 258.75 C 1073.80 259.70 1081.39 260.48 1089.00 261.26 C 1081.93 267.30 1073.84 272.00 1066.25 277.31 C 1066.01 271.12 1065.88 264.93 1066.23 258.75 Z"
       opacity="1.00"
       fill="#ef491a" />
    <path
       id="path54"
       d=" M 1492.68 268.28 C 1504.06 267.97 1515.48 267.70 1526.89 268.14 C 1542.59 269.99 1558.46 267.81 1574.14 270.04 C 1575.50 278.27 1578.63 286.10 1580.87 294.11 C 1572.44 291.45 1563.98 288.93 1555.45 286.68 C 1545.88 283.90 1536.37 280.97 1526.80 278.21 C 1515.41 274.91 1504.04 271.63 1492.68 268.28 Z"
       opacity="1.00"
       fill="#d5b700" />
    <path
       id="path56"
       d=" M 1526.80 278.21 C 1536.37 280.97 1545.88 283.90 1555.45 286.68 C 1547.39 295.53 1537.94 302.96 1529.18 311.09 C 1528.21 300.14 1528.45 289.10 1526.80 278.21 Z"
       opacity="1.00"
       fill="#cbee88" />
    <path
       id="path58"
       d=" M 425.07 285.09 C 458.36 302.89 491.45 321.10 525.03 338.33 C 503.73 347.93 482.51 357.72 461.14 367.16 C 461.70 365.35 462.22 363.52 462.73 361.70 C 456.77 366.07 450.98 370.66 444.97 374.98 C 435.08 378.37 426.07 383.90 416.18 387.26 C 417.76 353.13 422.87 319.20 425.07 285.09 Z"
       opacity="1.00"
       fill="#51fbb6" />
    <path
       id="path60"
       d=" M 1123.23 371.15 C 1136.44 349.59 1148.57 327.36 1162.03 305.97 C 1153.75 338.28 1143.43 370.20 1133.71 402.14 C 1130.01 391.88 1126.62 381.51 1123.23 371.15 Z"
       opacity="1.00"
       fill="#a0ce93" />
    <path
       id="path62"
       d=" M 810.94 338.89 C 811.34 337.46 813.35 338.14 813.65 339.34 C 827.61 362.58 842.11 385.51 855.96 408.83 C 825.03 415.21 794.73 424.28 763.87 430.92 C 778.65 399.79 795.51 369.70 810.94 338.89 Z"
       opacity="1.00"
       fill="#887e19" />
    <path
       id="path64"
       d=" M 99.72 369.22 C 132.32 361.89 165.11 355.36 197.88 348.84 C 190.65 368.87 184.29 389.21 176.82 409.15 C 150.73 396.62 125.57 382.23 99.72 369.22 Z"
       opacity="1.00"
       fill="#5d7642" />
    <path
       id="path66"
       d=" M 444.97 374.98 C 450.98 370.66 456.77 366.07 462.73 361.70 C 462.22 363.52 461.70 365.35 461.14 367.16 C 449.58 403.11 438.42 439.19 426.73 475.10 C 411.82 458.78 395.79 443.36 381.03 427.00 C 401.61 409.14 424.25 392.96 444.97 374.98 Z"
       opacity="1.00"
       fill="#b9cd50" />
    <path
       id="path68"
       d=" M 1257.95 374.00 C 1277.97 387.08 1297.04 401.54 1316.78 415.03 C 1325.60 421.63 1334.94 427.54 1343.76 434.17 C 1350.42 439.24 1357.63 443.59 1364.20 448.81 C 1354.90 450.29 1345.48 450.58 1336.12 451.09 C 1326.39 451.45 1316.72 452.53 1307.01 453.06 C 1296.35 453.53 1285.75 454.81 1275.09 455.02 C 1269.19 428.06 1262.99 401.12 1257.95 374.00 Z"
       opacity="1.00"
       fill="#ea6dd9" />
    <path
       id="path70"
       d=" M 1169.94 448.90 C 1193.24 427.85 1216.72 407.01 1239.88 385.81 C 1246.90 416.88 1253.15 448.11 1259.76 479.27 C 1229.70 469.51 1199.67 459.63 1169.94 448.90 Z"
       opacity="1.00"
       fill="#5924c9" />
    <path
       id="path72"
       d=" M 1316.78 415.03 C 1331.68 406.09 1346.42 396.43 1362.08 388.97 C 1356.92 404.36 1349.69 419.04 1343.76 434.17 C 1334.94 427.54 1325.60 421.63 1316.78 415.03 Z"
       opacity="1.00"
       fill="#581074" />
    <path
       id="path74"
       d=" M 1773.06 396.93 C 1817.84 411.91 1862.40 427.52 1907.12 442.68 C 1895.96 450.30 1884.71 457.79 1873.79 465.74 C 1871.72 467.01 1869.63 468.27 1867.77 469.83 C 1839.93 471.80 1812.18 474.97 1784.38 477.32 C 1781.14 450.45 1777.03 423.69 1773.06 396.93 Z"
       opacity="1.00"
       fill="#b62701" />
    <path
       id="path76"
       d=" M 606.91 498.98 C 624.87 467.50 642.44 435.51 661.66 404.87 C 666.10 415.06 671.86 424.63 676.11 434.91 C 668.28 430.85 661.11 425.64 653.18 421.78 C 659.57 436.23 666.62 450.38 673.18 464.76 C 651.29 476.53 629.24 488.05 606.91 498.98 Z"
       opacity="1.00"
       fill="#dcf496" />
    <path
       id="path78"
       d=" M 653.18 421.78 C 661.11 425.64 668.28 430.85 676.11 434.91 C 699.96 449.37 724.23 463.15 748.03 477.69 C 729.38 487.00 711.19 497.26 692.30 506.04 C 686.57 491.99 679.35 478.61 673.18 464.76 C 666.62 450.38 659.57 436.23 653.18 421.78 Z"
       opacity="1.00"
       fill="#ccff61" />
    <path
       id="path80"
       d=" M 23.75 445.17 C 57.55 446.56 91.42 445.23 125.20 447.22 C 109.28 474.32 92.97 501.20 76.75 528.12 C 59.11 500.46 41.13 473.00 23.75 445.17 Z"
       opacity="1.00"
       fill="#44e39c" />
    <path
       id="path82"
       d=" M 226.38 447.72 C 246.42 471.74 265.38 496.81 284.33 521.73 C 258.13 523.08 232.02 520.44 205.83 520.88 C 211.97 496.32 219.98 472.23 226.38 447.72 Z"
       opacity="1.00"
       fill="#fd5cd2" />
    <path
       id="path84"
       d=" M 1307.01 453.06 C 1316.72 452.53 1326.39 451.45 1336.12 451.09 C 1330.83 466.46 1323.88 481.27 1317.69 496.30 C 1313.68 481.99 1310.88 467.39 1307.01 453.06 Z"
       opacity="1.00"
       fill="#581074" />
    <path
       id="path86"
       d=" M 485.69 491.19 C 499.36 479.34 512.62 466.95 526.87 455.80 C 516.10 470.65 503.41 484.07 491.81 498.28 C 489.62 496.04 487.73 493.55 485.69 491.19 Z"
       opacity="1.00"
       fill="#a9dc6f" />
    <path
       id="path88"
       d=" M 460.98 465.99 C 470.10 473.51 476.95 483.26 485.69 491.19 C 487.73 493.55 489.62 496.04 491.81 498.28 C 496.51 503.51 502.49 507.70 506.11 513.84 C 492.93 522.13 479.78 530.52 466.29 538.26 C 466.15 535.49 466.00 532.72 465.84 529.96 C 465.53 525.63 465.10 521.32 464.81 517.00 C 463.75 499.98 462.36 482.98 460.98 465.99 Z"
       opacity="1.00"
       fill="#1ef93e" />
    <path
       id="path90"
       d=" M 1867.77 469.83 C 1869.63 468.27 1871.72 467.01 1873.79 465.74 C 1871.28 470.67 1867.72 474.98 1864.11 479.14 C 1865.29 476.02 1866.42 472.88 1867.77 469.83 Z"
       opacity="1.00"
       fill="#4c0df2" />
    <path
       id="path92"
       d=" M 1784.38 477.32 C 1812.18 474.97 1839.93 471.80 1867.77 469.83 C 1866.42 472.88 1865.29 476.02 1864.11 479.14 C 1860.96 485.25 1856.33 490.56 1853.71 496.96 C 1853.05 496.96 1851.73 496.96 1851.07 496.96 C 1846.03 496.51 1841.10 495.49 1836.11 494.87 C 1834.40 494.63 1832.71 494.37 1831.03 494.19 C 1815.99 492.46 1801.07 489.92 1786.08 487.91 C 1771.23 485.84 1756.40 483.73 1741.58 481.56 C 1755.84 480.09 1770.13 479.03 1784.38 477.32 Z"
       opacity="1.00"
       fill="#b1059f" />
    <path
       id="path94"
       d=" M 1786.08 487.91 C 1801.07 489.92 1815.99 492.46 1831.03 494.19 C 1819.69 502.83 1807.62 510.56 1795.69 518.37 C 1793.79 517.89 1791.91 517.42 1790.04 516.98 C 1789.32 507.22 1787.46 497.58 1786.08 487.91 Z"
       opacity="1.00"
       fill="#b62701" />
    <path
       id="path96"
       d=" M 1836.11 494.87 C 1841.10 495.49 1846.03 496.51 1851.07 496.96 C 1847.03 503.74 1841.72 509.66 1837.18 516.10 C 1837.19 509.00 1836.21 501.96 1836.11 494.87 Z"
       opacity="1.00"
       fill="#4c0df2" />
    <path
       id="path98"
       d=" M 1721.10 500.89 C 1744.12 506.10 1766.99 511.91 1790.04 516.98 C 1791.91 517.42 1793.79 517.89 1795.69 518.37 C 1802.14 520.03 1808.65 521.49 1815.14 523.10 C 1796.09 542.99 1777.67 563.48 1758.28 583.02 C 1746.40 555.42 1733.10 528.44 1721.10 500.89 Z"
       opacity="1.00"
       fill="#84f892" />
    <path
       id="path100"
       d=" M 460.00 536.05 C 461.28 529.62 462.43 523.12 464.81 517.00 C 465.10 521.32 465.53 525.63 465.84 529.96 C 463.74 531.84 461.93 534.00 460.00 536.05 Z"
       opacity="1.00"
       fill="#a9dc6f" />
    <path
       id="path102"
       d=" M 382.75 522.21 C 384.06 550.51 386.88 578.74 387.99 607.05 C 378.43 599.23 368.84 591.44 358.90 584.11 C 351.56 575.78 347.44 565.19 341.72 555.77 C 337.45 557.27 333.35 559.22 329.20 561.03 C 325.78 557.32 321.82 554.21 317.89 551.10 C 339.43 541.30 361.12 531.81 382.75 522.21 Z"
       opacity="1.00"
       fill="#8e2b1c" />
    <path
       id="path104"
       d=" M 1555.12 538.85 C 1582.98 556.55 1610.73 574.61 1638.11 592.99 C 1630.90 597.10 1622.29 598.76 1614.67 602.26 C 1612.98 593.51 1611.35 584.76 1609.76 576.00 C 1594.28 590.76 1579.58 606.32 1564.17 621.15 C 1557.49 621.85 1551.51 625.31 1545.16 627.17 C 1548.76 597.78 1550.60 568.09 1555.12 538.85 Z"
       opacity="1.00"
       fill="#cf1202" />
    <path
       id="path106"
       d=" M 329.20 561.03 C 333.35 559.22 337.45 557.27 341.72 555.77 C 347.44 565.19 351.56 575.78 358.90 584.11 C 362.00 590.88 366.13 597.14 369.12 603.96 C 343.71 597.22 318.78 588.16 293.83 579.78 C 305.32 573.00 317.17 566.79 329.20 561.03 Z"
       opacity="1.00"
       fill="#921c14" />
    <path
       id="path108"
       d=" M 910.93 652.94 C 927.51 626.75 945.89 601.76 962.78 575.77 C 980.27 601.79 997.61 627.92 1014.98 654.02 C 980.26 654.76 945.64 652.52 910.93 652.94 Z"
       opacity="1.00"
       fill="#a6ab8d" />
    <path
       id="path110"
       d=" M 1564.17 621.15 C 1579.58 606.32 1594.28 590.76 1609.76 576.00 C 1611.35 584.76 1612.98 593.51 1614.67 602.26 C 1619.32 631.55 1625.66 660.54 1630.17 689.85 C 1593.07 682.44 1555.78 675.87 1518.80 667.97 C 1534.14 652.56 1548.70 636.44 1564.17 621.15 Z"
       opacity="1.00"
       fill="#c3e8a9" />
    <path
       id="path112"
       d=" M 1807.03 585.93 C 1819.69 594.71 1831.54 604.64 1843.98 613.75 C 1832.81 618.09 1822.11 623.53 1811.01 628.00 C 1809.50 613.99 1808.67 599.92 1807.03 585.93 Z"
       opacity="1.00"
       fill="#c80fcd" />
    <path
       id="path114"
       d=" M 1064.95 609.99 C 1099.47 617.24 1133.48 626.73 1167.96 634.18 C 1160.44 646.87 1152.82 659.51 1145.06 672.05 C 1143.31 675.03 1141.57 678.01 1139.88 681.02 C 1136.55 678.36 1133.18 675.80 1130.17 672.81 C 1108.99 651.30 1085.91 631.68 1064.95 609.99 Z"
       opacity="1.00"
       fill="#1af124" />
    <path
       id="path116"
       d=" M 1761.76 639.73 C 1769.31 629.83 1776.71 618.72 1784.94 610.14 C 1798.28 624.13 1812.52 638.02 1825.00 653.03 C 1803.93 648.56 1782.66 644.93 1761.76 639.73 Z"
       opacity="1.00"
       fill="#a935f3" />
    <path
       id="path118"
       d=" M 1863.10 718.97 C 1877.09 689.86 1890.99 660.71 1905.67 631.95 C 1920.90 665.53 1937.55 698.49 1953.18 731.90 C 1923.00 728.96 1893.19 722.81 1863.10 718.97 Z"
       opacity="1.00"
       fill="#050929" />
    <path
       id="path120"
       d=" M 779.28 657.09 C 789.52 687.41 800.46 717.52 809.97 748.08 C 799.25 745.53 788.92 741.60 778.30 738.71 C 758.83 732.86 739.62 726.09 719.97 720.91 L 720.41 720.36 C 728.62 711.24 737.01 702.28 745.26 693.19 C 756.78 681.33 767.65 668.85 779.28 657.09 Z"
       opacity="1.00"
       fill="#2a078b" />
    <path
       id="path122"
       d=" M 1145.06 672.05 C 1165.06 671.62 1185.07 671.05 1205.07 670.01 C 1187.35 695.23 1169.25 720.26 1151.01 745.13 C 1127.30 722.17 1104.06 698.63 1080.86 675.12 C 1097.20 673.26 1113.75 673.97 1130.17 672.81 C 1133.18 675.80 1136.55 678.36 1139.88 681.02 C 1141.57 678.01 1143.31 675.03 1145.06 672.05 Z"
       opacity="1.00"
       fill="#6bd7b9" />
    <path
       id="path124"
       d=" M 493.06 670.89 C 517.86 674.18 542.40 679.30 567.12 683.23 C 558.15 698.61 547.76 713.11 538.22 728.15 C 523.39 708.88 507.98 690.08 493.06 670.89 Z"
       opacity="1.00"
       fill="#79f968" />
    <path
       id="path126"
       d=" M 729.96 679.88 C 735.11 684.25 740.13 688.79 745.26 693.19 C 737.01 702.28 728.62 711.24 720.41 720.36 C 722.66 706.68 726.15 693.21 729.96 679.88 Z"
       opacity="1.00"
       fill="#1be13b" />
    <path
       id="path128"
       d=" M 277.96 784.97 C 293.10 756.16 306.32 726.38 321.55 697.65 C 322.52 715.00 326.43 732.24 326.69 749.53 C 312.45 761.67 297.81 773.37 283.82 785.80 C 281.00 788.05 278.08 790.17 275.06 792.15 C 275.86 789.69 276.83 787.29 277.96 784.97 Z"
       opacity="1.00"
       fill="#745617" />
    <path
       id="path130"
       d=" M 670.92 717.96 C 684.61 727.77 698.88 736.76 712.71 746.39 C 718.94 750.81 725.27 755.11 731.64 759.35 C 745.46 769.97 761.20 778.35 774.41 789.54 C 731.87 795.53 689.56 803.11 647.02 809.03 C 655.01 778.68 662.44 748.15 670.92 717.96 Z"
       opacity="1.00"
       fill="#a54a0e" />
    <path
       id="path132"
       d=" M 719.15 720.75 L 719.97 720.91 C 739.62 726.09 758.83 732.86 778.30 738.71 C 762.84 745.80 747.02 752.11 731.64 759.35 C 725.27 755.11 718.94 750.81 712.71 746.39 C 715.68 738.09 717.67 729.43 719.15 720.75 Z"
       opacity="1.00"
       fill="#1be13b" />
    <path
       id="path134"
       d=" M 492.94 724.72 C 501.39 733.60 510.22 742.19 517.94 751.74 C 507.52 754.10 497.38 757.53 487.00 760.02 C 488.67 748.21 490.31 736.36 492.94 724.72 Z"
       opacity="1.00"
       fill="#c1a3a5" />
    <path
       id="path136"
       d=" M 826.04 724.93 C 841.46 744.87 857.24 764.58 872.16 784.89 C 859.45 785.08 846.75 785.03 834.06 784.95 C 831.46 764.93 828.25 744.99 826.04 724.93 Z"
       opacity="1.00"
       fill="#7dd847" />
    <path
       id="path138"
       d=" M 1370.04 731.92 C 1399.39 757.19 1428.09 783.22 1457.22 808.75 C 1427.47 809.67 1397.73 811.07 1367.99 812.01 C 1369.20 785.32 1369.72 758.62 1370.04 731.92 Z"
       opacity="1.00"
       fill="#fa9032" />
    <path
       id="path140"
       d=" M 1465.95 879.04 C 1482.22 843.24 1500.35 808.28 1517.63 772.95 C 1525.97 799.09 1537.83 824.25 1545.01 850.66 C 1518.55 859.80 1492.54 870.40 1465.95 879.04 Z"
       opacity="1.00"
       fill="#939493" />
    <path
       id="path142"
       d=" M 241.10 782.92 C 253.39 783.44 265.69 784.03 277.96 784.97 C 276.83 787.29 275.86 789.69 275.06 792.15 C 278.08 790.17 281.00 788.05 283.82 785.80 C 276.59 825.95 267.84 865.84 260.16 905.92 C 259.67 908.77 259.08 911.34 258.63 914.28 C 257.95 909.08 257.18 903.90 256.33 898.74 C 251.61 860.09 246.56 821.46 241.10 782.92 Z"
       opacity="1.00"
       fill="#3c39f2" />
    <path
       id="path144"
       d=" M 1265.95 872.95 C 1289.11 847.41 1311.31 820.95 1334.89 795.81 C 1343.85 819.76 1352.65 843.76 1361.21 867.85 C 1329.51 870.24 1297.67 870.85 1265.95 872.95 Z"
       opacity="1.00"
       fill="#4565f7" />
    <path
       id="path146"
       d=" M 676.96 853.89 C 690.70 836.70 704.15 819.28 717.80 802.02 C 722.99 831.75 729.09 861.34 733.97 891.12 C 714.43 879.60 695.86 866.42 676.96 853.89 Z"
       opacity="1.00"
       fill="#b967ff" />
    <path
       id="path148"
       d=" M 201.82 810.25 C 213.53 809.32 225.24 808.31 236.98 807.91 C 238.58 831.88 239.75 855.89 241.13 879.89 C 241.30 882.64 241.63 885.39 241.84 888.15 C 236.08 877.86 231.56 866.88 224.88 857.13 C 218.63 840.81 208.67 826.29 201.82 810.25 Z"
       opacity="1.00"
       fill="#25af92" />
    <path
       id="path150"
       d=" M 1508.87 901.74 C 1546.76 869.97 1585.23 838.86 1623.62 807.69 C 1625.75 845.13 1625.07 882.68 1625.88 920.15 C 1586.82 914.47 1547.73 908.61 1508.87 901.74 Z"
       opacity="1.00"
       fill="#6b3e4d" />
    <path
       id="path152"
       d=" M 197.25 820.00 C 206.43 832.39 215.11 845.18 224.88 857.13 C 231.56 866.88 236.08 877.86 241.84 888.15 C 241.63 885.39 241.30 882.64 241.13 879.89 C 246.90 885.50 249.46 894.37 256.33 898.74 C 257.18 903.90 257.95 909.08 258.63 914.28 C 259.08 911.34 259.67 908.77 260.16 905.92 C 263.59 909.60 266.23 913.94 269.13 918.05 C 233.03 924.11 196.98 930.73 160.74 935.80 C 172.63 897.10 185.72 858.80 197.25 820.00 Z"
       opacity="1.00"
       fill="#25e13f" />
    <path
       id="path154"
       d=" M 947.60 890.45 C 971.63 872.75 994.21 852.98 1018.63 835.90 C 1022.07 850.05 1026.20 864.04 1029.82 878.16 C 1033.26 893.18 1038.13 907.86 1041.10 922.98 C 1028.02 918.88 1015.19 914.01 1002.15 909.79 C 989.88 905.54 977.71 900.98 965.29 897.20 C 959.42 894.85 953.18 893.45 947.60 890.45 Z"
       opacity="1.00"
       fill="#3f2436" />
    <path
       id="path156"
       d=" M 1076.95 860.12 C 1096.95 854.68 1116.85 848.74 1137.03 843.99 C 1125.89 856.19 1112.68 866.33 1100.90 877.93 C 1094.95 877.91 1089.04 877.92 1083.13 877.92 C 1081.59 871.81 1078.49 866.23 1076.95 860.12 Z"
       opacity="1.00"
       fill="#55838d" />
    <path
       id="path158"
       d=" M 862.93 919.26 C 886.24 896.79 908.65 873.41 931.85 850.82 C 932.28 867.60 931.69 884.39 932.16 901.18 C 922.99 902.24 913.83 903.31 904.68 904.44 C 913.05 910.81 923.80 913.09 933.13 917.88 C 932.85 932.94 933.12 948.00 932.95 963.07 C 909.39 948.81 886.40 933.65 862.93 919.26 Z"
       opacity="1.00"
       fill="#b8a1af" />
    <path
       id="path160"
       d=" M 1840.91 853.21 C 1841.83 852.42 1842.80 851.68 1843.81 850.96 C 1844.05 852.09 1844.31 853.23 1844.59 854.38 C 1851.20 886.17 1857.41 918.05 1864.18 949.82 L 1864.35 950.68 C 1833.08 937.32 1802.95 921.08 1772.06 906.75 C 1793.70 889.72 1815.71 873.16 1837.27 856.04 C 1838.53 855.16 1839.75 854.23 1840.91 853.21 Z"
       opacity="1.00"
       fill="#25aa0b" />
    <path
       id="path162"
       d=" M 1837.27 856.04 C 1835.53 853.95 1839.22 851.47 1840.91 853.21 C 1839.75 854.23 1838.53 855.16 1837.27 856.04 Z"
       opacity="1.00"
       fill="#712338" />
    <path
       id="path164"
       d=" M 1844.59 854.38 C 1886.53 862.61 1928.44 871.14 1970.25 880.06 C 1937.21 910.12 1903.85 939.83 1870.14 969.12 C 1868.30 962.62 1866.75 956.06 1864.18 949.82 C 1857.41 918.05 1851.20 886.17 1844.59 854.38 Z"
       opacity="1.00"
       fill="#712338" />
    <path
       id="path166"
       d=" M 1029.82 878.16 C 1047.58 877.79 1065.35 878.13 1083.13 877.92 C 1089.04 877.92 1094.95 877.91 1100.90 877.93 C 1103.58 877.93 1106.29 877.96 1109.02 878.04 C 1098.32 919.72 1086.86 961.23 1076.67 1003.04 C 1051.90 973.84 1028.41 943.52 1004.20 913.84 C 1003.41 912.53 1002.75 911.17 1002.15 909.79 C 1015.19 914.01 1028.02 918.88 1041.10 922.98 C 1038.13 907.86 1033.26 893.18 1029.82 878.16 Z"
       opacity="1.00"
       fill="#7450bf" />
    <path
       id="path168"
       d=" M 965.29 897.20 C 977.71 900.98 989.88 905.54 1002.15 909.79 C 1002.75 911.17 1003.41 912.53 1004.20 913.84 C 1001.78 924.53 1000.43 935.45 997.90 946.13 C 976.20 936.96 954.74 927.23 933.13 917.88 C 923.80 913.09 913.05 910.81 904.68 904.44 C 913.83 903.31 922.99 902.24 932.16 901.18 C 943.23 900.19 954.34 899.21 965.29 897.20 Z"
       opacity="1.00"
       fill="#7e9995" />
    <path
       id="path170"
       d=" M 701.14 921.93 C 714.03 927.60 726.78 933.57 739.20 940.22 C 724.23 945.73 709.05 950.64 694.05 956.09 C 695.34 944.51 698.67 933.29 701.14 921.93 Z"
       opacity="1.00"
       fill="#468539" />
    <path
       id="path172"
       d=" M 525.35 924.92 C 541.27 931.32 555.93 940.64 571.07 948.67 C 550.26 961.25 529.99 974.72 509.03 987.06 C 514.15 966.27 520.23 945.71 525.35 924.92 Z"
       opacity="1.00"
       fill="#2b83d1" />
    <path
       id="path174"
       d=" M 705.83 956.21 C 737.82 946.95 769.97 938.26 802.00 929.13 C 804.24 963.48 808.95 997.69 812.02 1031.99 C 776.42 1007.05 740.92 981.77 705.83 956.21 Z"
       opacity="1.00"
       fill="#9726fe" />
    <path
       id="path176"
       d=" M 888.90 999.32 C 910.93 988.91 932.04 976.66 953.86 965.82 C 949.93 990.29 945.59 1014.72 940.95 1039.07 C 923.56 1025.88 906.08 1012.78 888.90 999.32 Z"
       opacity="1.00"
       fill="#cba9a8" />
    <path
       id="path178"
       d=" M 127.98 983.92 C 161.66 988.23 195.60 990.47 229.21 995.26 C 189.01 1022.07 148.79 1048.94 108.23 1075.22 C 115.08 1044.84 120.90 1014.23 127.98 983.92 Z"
       opacity="1.00"
       fill="#4461b5" />
    <path
       id="path180"
       d=" M 1179.89 993.09 C 1199.49 1007.97 1218.59 1023.62 1237.20 1039.71 C 1230.90 1044.60 1224.60 1049.48 1218.65 1054.78 C 1210.76 1061.16 1202.82 1067.49 1195.07 1074.04 C 1194.09 1069.60 1193.19 1065.15 1192.36 1060.72 C 1188.49 1038.12 1184.27 1015.59 1179.89 993.09 Z"
       opacity="1.00"
       fill="#c96a2a" />
    <path
       id="path182"
       d=" M 1400.50 1019.46 C 1437.42 1013.32 1474.17 1006.10 1511.09 1000.02 C 1503.86 1015.68 1495.22 1030.72 1486.98 1045.87 C 1458.35 1036.68 1428.36 1030.21 1400.50 1019.46 Z"
       opacity="1.00"
       fill="#4660da" />
    <path
       id="path184"
       d=" M 334.01 1024.13 C 357.80 1018.61 381.15 1011.29 404.97 1005.93 C 397.10 1033.13 388.81 1060.27 380.33 1087.30 C 364.90 1066.24 349.62 1045.06 334.01 1024.13 Z"
       opacity="1.00"
       fill="#02b9e0" />
    <path
       id="path186"
       d=" M 70.27 1008.84 C 87.54 1047.93 103.04 1087.85 119.77 1127.20 C 120.14 1128.17 120.52 1129.16 120.88 1130.16 C 114.59 1128.52 108.39 1126.59 102.14 1124.83 C 74.12 1116.44 46.23 1107.58 18.03 1099.86 C 23.75 1089.42 29.71 1079.08 36.08 1069.05 C 35.30 1075.29 34.57 1081.55 33.95 1087.83 C 44.34 1088.09 54.70 1088.87 65.03 1089.96 C 57.93 1078.22 50.27 1066.84 42.95 1055.25 C 53.22 1040.52 61.09 1024.25 70.27 1008.84 Z"
       opacity="1.00"
       fill="#8515bf" />
    <path
       id="path188"
       d=" M 1863.70 1058.41 C 1882.90 1055.87 1901.80 1051.45 1921.02 1049.02 C 1918.74 1082.67 1920.95 1116.50 1918.79 1150.20 C 1900.20 1119.77 1881.14 1089.49 1863.70 1058.41 Z"
       opacity="1.00"
       fill="#a3df84" />
    <path
       id="path190"
       d=" M 39.28 1050.80 C 40.59 1052.20 41.86 1053.65 42.95 1055.25 C 50.27 1066.84 57.93 1078.22 65.03 1089.96 C 54.70 1088.87 44.34 1088.09 33.95 1087.83 C 34.57 1081.55 35.30 1075.29 36.08 1069.05 C 37.36 1063.00 38.52 1056.93 39.28 1050.80 Z"
       opacity="1.00"
       fill="#a0698b" />
    <path
       id="path192"
       d=" M 227.93 1077.06 C 246.99 1069.09 265.71 1060.29 284.97 1052.79 C 285.83 1056.07 286.68 1059.44 287.29 1062.82 C 287.55 1064.19 287.80 1065.57 288.04 1066.97 C 293.96 1101.73 301.28 1136.28 306.97 1171.08 C 279.86 1140.45 254.02 1108.59 227.93 1077.06 Z"
       opacity="1.00"
       fill="#c6092b" />
    <path
       id="path194"
       d=" M 287.29 1062.82 C 309.02 1060.99 330.45 1056.30 352.16 1054.11 C 348.06 1075.08 344.25 1096.12 339.78 1117.03 C 322.72 1100.14 305.24 1083.70 288.04 1066.97 C 287.80 1065.57 287.55 1064.19 287.29 1062.82 Z"
       opacity="1.00"
       fill="#2d7ca8" />
    <path
       id="path196"
       d=" M 1195.07 1074.04 C 1202.82 1067.49 1210.76 1061.16 1218.65 1054.78 C 1222.24 1072.27 1226.79 1089.57 1231.07 1106.91 C 1210.75 1102.17 1190.26 1098.21 1169.90 1093.67 C 1176.49 1082.12 1185.76 1072.30 1192.36 1060.72 C 1193.19 1065.15 1194.09 1069.60 1195.07 1074.04 Z"
       opacity="1.00"
       fill="#d56d7f" />
    <path
       id="path198"
       d=" M 594.93 1058.04 C 603.45 1060.11 611.81 1062.81 619.98 1066.03 C 620.17 1084.13 622.27 1102.16 622.76 1120.26 C 613.20 1099.66 603.45 1079.09 594.93 1058.04 Z"
       opacity="1.00"
       fill="#8995f3" />
    <path
       id="path200"
       d=" M 1485.90 1060.91 C 1498.28 1101.08 1509.42 1141.68 1520.95 1182.11 C 1478.12 1173.25 1435.65 1162.61 1392.84 1153.61 C 1422.65 1121.61 1455.27 1092.21 1485.90 1060.91 Z"
       opacity="1.00"
       fill="#8ad1d9" />
    <path
       id="path202"
       d=" M 487.96 1108.98 C 521.89 1121.38 555.37 1135.06 589.01 1148.23 C 567.44 1163.95 545.81 1179.62 524.09 1195.13 C 511.82 1166.52 499.71 1137.81 487.96 1108.98 Z"
       opacity="1.00"
       fill="#db58b9" />
    <path
       id="path204"
       d=" M 1727.18 1109.81 C 1731.67 1120.09 1735.78 1130.60 1739.39 1141.25 C 1736.68 1141.65 1734.30 1142.28 1731.74 1142.80 C 1730.20 1131.80 1728.52 1120.82 1727.18 1109.81 Z"
       opacity="1.00"
       fill="#a3b755" />
    <path
       id="path206"
       d=" M 1819.95 1118.80 C 1837.07 1121.52 1854.04 1125.07 1871.08 1128.31 C 1851.03 1139.47 1830.16 1149.06 1810.00 1159.98 C 1813.53 1146.31 1816.27 1132.43 1819.95 1118.80 Z"
       opacity="1.00"
       fill="#662c4b" />
    <path
       id="path208"
       d=" M 102.14 1124.83 C 108.39 1126.59 114.59 1128.52 120.88 1130.16 C 120.52 1129.16 120.14 1128.17 119.77 1127.20 C 149.90 1139.29 178.94 1154.01 209.00 1166.25 C 179.57 1189.32 150.88 1213.33 121.31 1236.21 C 119.48 1226.03 118.24 1215.75 115.78 1205.71 C 118.03 1192.38 121.15 1179.22 124.01 1166.02 C 119.78 1168.84 115.49 1171.58 111.28 1174.45 C 107.25 1158.12 105.10 1141.37 102.14 1124.83 Z"
       opacity="1.00"
       fill="#d66722" />
    <path
       id="path210"
       d=" M 1739.39 1141.25 C 1747.27 1140.06 1755.01 1138.02 1762.91 1136.85 C 1761.47 1152.92 1757.88 1168.71 1755.95 1184.73 C 1755.05 1189.79 1754.10 1194.85 1753.10 1199.90 C 1741.12 1195.45 1728.95 1191.61 1717.03 1187.03 C 1707.89 1174.94 1698.32 1163.18 1689.05 1151.20 C 1703.32 1148.65 1717.47 1145.43 1731.74 1142.80 C 1734.30 1142.28 1736.68 1141.65 1739.39 1141.25 Z"
       opacity="1.00"
       fill="#d3ad76" />
    <path
       id="path212"
       d=" M 1333.27 1146.09 C 1353.65 1166.26 1373.14 1187.54 1392.26 1208.81 C 1362.71 1194.71 1333.97 1178.97 1304.72 1164.26 C 1314.00 1157.83 1324.01 1152.55 1333.27 1146.09 Z"
       opacity="1.00"
       fill="#5f3b7c" />
    <path
       id="path214"
       d=" M 111.28 1174.45 C 115.49 1171.58 119.78 1168.84 124.01 1166.02 C 121.15 1179.22 118.03 1192.38 115.78 1205.71 C 113.74 1213.79 111.96 1221.93 110.69 1230.18 C 95.89 1221.82 81.32 1213.02 66.79 1204.20 C 81.54 1194.16 96.51 1184.45 111.28 1174.45 Z"
       opacity="1.00"
       fill="#e3ebbd" />
    <path
       id="path216"
       d=" M 1227.36 1201.65 C 1238.14 1191.98 1255.33 1184.06 1268.91 1176.06 C 1292.40 1193.92 1315.48 1212.90 1338.10 1231.97 C 1300.99 1222.72 1264.31 1211.61 1227.36 1201.65 Z"
       opacity="1.00"
       fill="#6b1f11" />
    <path
       id="path218"
       d=" M 621.09 1176.88 C 632.46 1181.23 643.64 1186.05 655.03 1190.35 C 639.26 1218.04 623.34 1245.70 607.06 1273.10 C 611.59 1241.01 615.62 1208.80 621.09 1176.88 Z"
       opacity="1.00"
       fill="#37fb5b" />
    <path
       id="path220"
       d=" M 1693.08 1178.91 C 1701.17 1181.26 1708.94 1184.64 1717.03 1187.03 C 1728.95 1191.61 1741.12 1195.45 1753.10 1199.90 C 1756.37 1201.01 1759.68 1201.99 1762.99 1203.04 C 1768.02 1204.71 1772.85 1206.97 1777.99 1208.33 C 1752.72 1224.41 1727.31 1240.26 1701.94 1256.20 C 1698.61 1230.48 1696.33 1204.63 1693.08 1178.91 Z"
       opacity="1.00"
       fill="#1c781f" />
    <path
       id="path222"
       d=" M 1755.95 1184.73 C 1758.73 1190.63 1761.59 1196.63 1762.99 1203.04 C 1759.68 1201.99 1756.37 1201.01 1753.10 1199.90 C 1754.10 1194.85 1755.05 1189.79 1755.95 1184.73 Z"
       opacity="1.00"
       fill="#a3b755" />
    <path
       id="path224"
       d=" M 1473.22 1187.02 C 1481.93 1195.85 1491.77 1203.53 1500.08 1212.77 C 1482.66 1228.47 1465.82 1244.83 1447.95 1259.99 C 1456.06 1235.56 1464.70 1211.31 1473.22 1187.02 Z"
       opacity="1.00"
       fill="#2bcc05" />
    <path
       id="path226"
       d=" M 905.97 1201.07 C 924.60 1197.44 943.21 1193.44 962.04 1191.00 C 955.59 1209.90 948.43 1228.58 941.28 1247.24 C 929.85 1231.59 917.67 1216.51 905.97 1201.07 Z"
       opacity="1.00"
       fill="#53eec1" />
    <path
       id="path228"
       d=" M 297.22 1291.24 C 305.91 1263.22 315.39 1234.21 325.00 1207.22 C 340.78 1225.87 357.93 1244.58 372.10 1264.64 C 346.88 1272.74 322.35 1282.86 297.22 1291.24 Z"
       opacity="1.00"
       fill="#7e1460" />
    <path
       id="path230"
       d=" M 1774.22 1212.10 C 1790.19 1227.01 1806.73 1241.35 1822.12 1256.85 C 1802.26 1263.60 1782.33 1270.20 1762.23 1276.25 C 1766.24 1254.87 1770.09 1233.46 1774.22 1212.10 Z"
       opacity="1.00"
       fill="#a1fac7" />
    <path
       id="path232"
       d=" M 825.57 1274.42 C 854.13 1259.43 882.55 1244.17 911.02 1229.00 C 908.13 1240.26 904.57 1251.34 901.66 1262.60 C 899.72 1269.34 897.44 1276.02 895.97 1282.90 C 872.51 1280.02 848.98 1277.66 825.57 1274.42 Z"
       opacity="1.00"
       fill="#287146" />
    <path
       id="path234"
       d=" M 1277.15 1257.79 C 1288.58 1278.06 1298.60 1299.12 1309.21 1319.83 C 1291.40 1320.11 1273.56 1319.44 1255.84 1317.75 C 1262.27 1297.54 1269.68 1277.63 1277.15 1257.79 Z"
       opacity="1.00"
       fill="#4528b6" />
    <path
       id="path236"
       d=" M 895.97 1282.90 C 897.44 1276.02 899.72 1269.34 901.66 1262.60 C 905.51 1263.15 909.31 1263.66 913.19 1264.24 C 910.55 1272.97 906.97 1281.40 903.85 1289.98 C 901.18 1287.87 898.46 1285.72 895.79 1283.72 L 895.97 1282.90 Z"
       opacity="1.00"
       fill="#507bae" />
    <path
       id="path238"
       d=" M 1150.32 1304.90 C 1179.62 1321.95 1208.41 1340.03 1237.24 1357.92 C 1196.95 1366.19 1156.33 1372.77 1116.04 1381.02 C 1127.54 1355.68 1139.45 1330.50 1150.32 1304.90 Z"
       opacity="1.00"
       fill="#5de29a" />
    <path
       id="path240"
       d=" M 1876.85 1447.92 C 1887.87 1416.72 1900.01 1385.88 1911.69 1354.91 C 1919.25 1374.52 1926.61 1394.19 1934.10 1413.83 C 1914.70 1424.65 1896.47 1437.52 1876.85 1447.92 Z"
       opacity="1.00"
       fill="#cc4f7b" />
    <path
       id="path242"
       d=" M 893.18 1387.79 C 917.27 1404.09 940.73 1421.34 964.33 1438.36 C 951.16 1441.72 937.81 1444.29 924.65 1447.66 C 918.50 1449.06 912.34 1450.41 906.20 1451.83 C 905.81 1449.81 905.40 1447.81 905.01 1445.83 C 901.02 1426.49 897.10 1407.13 893.18 1387.79 Z"
       opacity="1.00"
       fill="#e97a79" />
    <path
       id="path244"
       d=" M 376.93 1439.26 C 404.53 1427.03 432.11 1414.74 459.91 1402.99 C 455.74 1434.70 451.03 1466.33 446.85 1498.04 C 423.28 1478.75 400.39 1458.67 376.93 1439.26 Z"
       opacity="1.00"
       fill="#b9b4fc" />
    <path
       id="path246"
       d=" M 942.99 1477.23 C 962.34 1453.82 981.57 1430.31 1000.96 1406.92 C 999.66 1434.84 996.94 1462.68 994.84 1490.56 C 982.24 1494.14 967.86 1494.03 954.65 1496.85 C 945.43 1497.78 936.23 1498.88 927.12 1500.53 C 926.04 1500.34 924.99 1500.16 923.96 1499.90 C 930.74 1492.72 936.51 1484.68 942.99 1477.23 Z"
       opacity="1.00"
       fill="#b8fa89" />
    <path
       id="path248"
       d=" M 1725.07 1421.93 C 1756.19 1435.28 1787.34 1449.10 1818.10 1462.98 C 1800.46 1479.24 1783.31 1496.06 1765.30 1511.90 C 1752.26 1481.75 1738.63 1451.84 1725.07 1421.93 Z"
       opacity="1.00"
       fill="#d98336" />
    <path
       id="path250"
       d=" M 1138.09 1431.87 C 1161.67 1446.41 1183.77 1463.25 1207.07 1478.24 C 1187.32 1501.71 1166.16 1523.99 1146.18 1547.28 C 1143.18 1508.84 1140.51 1470.35 1138.09 1431.87 Z"
       opacity="1.00"
       fill="#dcd1b0" />
    <path
       id="path252"
       d=" M 1038.97 1475.81 C 1053.75 1465.20 1067.06 1452.24 1082.66 1442.91 C 1096.20 1459.75 1111.20 1475.40 1125.02 1492.04 C 1096.22 1487.30 1067.80 1480.33 1038.97 1475.81 Z"
       opacity="1.00"
       fill="#0b2ed6" />
    <path
       id="path254"
       d=" M 842.65 1471.86 C 863.46 1463.26 883.98 1453.87 905.01 1445.83 C 905.40 1447.81 905.81 1449.81 906.20 1451.83 C 912.34 1450.41 918.50 1449.06 924.65 1447.66 C 931.01 1457.35 936.02 1467.95 942.99 1477.23 C 936.51 1484.68 930.74 1492.72 923.96 1499.90 C 921.07 1498.71 918.18 1497.51 915.18 1496.68 C 891.11 1488.09 866.49 1481.05 842.65 1471.86 Z"
       opacity="1.00"
       fill="#6df8aa" />
    <path
       id="path256"
       d=" M 1501.75 1466.36 C 1518.15 1462.11 1534.32 1457.01 1550.78 1452.97 C 1549.99 1470.88 1545.58 1488.41 1543.66 1506.22 C 1529.42 1493.30 1514.65 1480.56 1501.75 1466.36 Z"
       opacity="1.00"
       fill="#f520fe" />
    <path
       id="path258"
       d=" M 1224.16 1483.14 C 1235.95 1479.62 1247.91 1476.43 1259.95 1473.90 C 1243.12 1500.24 1225.72 1526.29 1208.01 1552.04 C 1212.95 1528.97 1218.73 1506.09 1224.16 1483.14 Z"
       opacity="1.00"
       fill="#31be6a" />
    <path
       id="path260"
       d=" M 510.24 1488.17 C 524.05 1484.68 538.12 1482.09 552.05 1479.04 C 532.05 1501.68 511.45 1523.82 490.96 1546.01 C 496.85 1526.63 502.92 1507.01 510.24 1488.17 Z"
       opacity="1.00"
       fill="#318afe" />
    <path
       id="path262"
       d=" M 190.99 1480.98 C 200.27 1486.06 209.01 1492.04 218.18 1497.30 C 210.28 1504.26 201.12 1509.57 192.22 1515.15 C 192.10 1503.74 190.84 1492.38 190.99 1480.98 Z"
       opacity="1.00"
       fill="#da124f" />
    <path
       id="path264"
       d=" M 882.91 1503.13 C 893.58 1500.58 904.42 1498.77 915.18 1496.68 C 918.18 1497.51 921.07 1498.71 923.96 1499.90 C 924.99 1500.16 926.04 1500.34 927.12 1500.53 C 932.24 1502.00 937.20 1504.01 942.28 1505.69 C 942.07 1520.24 945.32 1534.57 947.05 1548.97 C 925.25 1534.28 904.64 1517.92 882.91 1503.13 Z"
       opacity="1.00"
       fill="#402a1b" />
    <path
       id="path266"
       d=" M 927.12 1500.53 C 936.23 1498.88 945.43 1497.78 954.65 1496.85 C 956.87 1502.22 960.76 1506.74 962.90 1512.18 C 955.91 1510.35 949.19 1507.75 942.28 1505.69 C 937.20 1504.01 932.24 1502.00 927.12 1500.53 Z"
       opacity="1.00"
       fill="#6df8aa" />
    <path
       id="path268"
       d=" M 969.94 1575.83 C 997.33 1549.30 1024.94 1522.80 1053.61 1497.67 C 1056.86 1532.88 1060.61 1568.07 1064.78 1603.16 C 1033.34 1593.46 1001.44 1585.32 969.94 1575.83 Z"
       opacity="1.00"
       fill="#5ec2c2" />
    <path
       id="path270"
       d=" M 365.95 1501.78 C 378.14 1515.68 390.10 1529.77 402.09 1543.85 C 387.42 1544.12 372.78 1545.08 358.16 1546.16 C 360.93 1531.39 362.65 1516.43 365.95 1501.78 Z"
       opacity="1.00"
       fill="#c82186" />
    <path
       id="path272"
       d=" M 1643.23 1505.03 C 1647.82 1508.96 1651.49 1514.18 1657.03 1516.93 C 1674.07 1534.86 1693.72 1550.15 1711.14 1567.72 C 1698.72 1568.74 1686.36 1570.35 1674.01 1571.92 C 1658.36 1573.45 1642.78 1575.56 1627.15 1577.15 C 1632.64 1553.14 1637.75 1529.04 1643.23 1505.03 Z"
       opacity="1.00"
       fill="#87cd68" />
    <path
       id="path274"
       d=" M 1656.02 1510.99 C 1678.14 1522.50 1700.05 1534.42 1722.08 1546.13 C 1716.83 1567.73 1710.99 1589.18 1705.83 1610.82 C 1704.89 1611.20 1703.97 1611.60 1703.07 1612.03 C 1703.47 1614.22 1703.85 1616.42 1704.18 1618.66 C 1701.49 1626.58 1699.26 1634.66 1698.05 1642.97 C 1697.36 1643.01 1695.98 1643.08 1695.29 1643.12 C 1688.97 1619.18 1681.22 1595.60 1674.01 1571.92 C 1686.36 1570.35 1698.72 1568.74 1711.14 1567.72 C 1693.72 1550.15 1674.07 1534.86 1657.03 1516.93 C 1656.65 1514.94 1656.36 1512.95 1656.02 1510.99 Z"
       opacity="1.00"
       fill="#6beff1" />
    <path
       id="path276"
       d=" M 608.02 1538.95 C 626.05 1560.71 643.30 1583.34 659.79 1606.26 C 649.62 1602.66 639.66 1598.48 629.70 1594.34 C 623.79 1575.44 614.45 1557.70 608.02 1538.95 Z"
       opacity="1.00"
       fill="#f5f293" />
    <path
       id="path278"
       d=" M 595.91 1581.08 C 607.13 1585.61 618.26 1590.40 629.70 1594.34 C 639.66 1598.48 649.62 1602.66 659.79 1606.26 C 665.38 1608.90 671.23 1610.92 676.99 1613.18 C 675.17 1615.86 673.15 1618.40 670.94 1620.76 C 667.61 1624.44 664.32 1628.19 661.05 1631.94 C 645.01 1649.89 629.61 1668.42 613.27 1686.10 C 609.57 1664.72 606.53 1643.22 602.27 1621.95 C 603.10 1618.54 603.96 1615.15 604.78 1611.76 C 603.49 1612.10 602.22 1612.47 600.96 1612.90 C 599.52 1602.25 597.36 1591.71 595.91 1581.08 Z"
       opacity="1.00"
       fill="#3f38ad" />
    <path
       id="path280"
       d=" M 1703.07 1612.03 C 1703.97 1611.60 1704.89 1611.20 1705.83 1610.82 C 1728.18 1613.13 1750.64 1614.48 1773.06 1616.18 C 1753.70 1635.04 1734.39 1653.99 1715.20 1673.06 C 1711.65 1654.90 1708.27 1636.70 1704.18 1618.66 C 1703.85 1616.42 1703.47 1614.22 1703.07 1612.03 Z"
       opacity="1.00"
       fill="#66f3ee" />
    <path
       id="path282"
       d=" M 600.96 1612.90 C 602.22 1612.47 603.49 1612.10 604.78 1611.76 C 603.96 1615.15 603.10 1618.54 602.27 1621.95 C 593.60 1653.65 584.83 1685.35 576.57 1717.17 C 555.00 1694.90 535.37 1670.40 514.90 1646.98 C 543.25 1635.03 572.32 1624.34 600.96 1612.90 Z"
       opacity="1.00"
       fill="#8c9568" />
    <path
       id="path284"
       d=" M 1216.97 1612.02 C 1248.67 1615.67 1280.41 1619.03 1312.16 1622.27 C 1274.83 1635.30 1237.69 1649.09 1200.04 1661.09 C 1201.06 1657.43 1202.07 1653.77 1203.10 1650.13 C 1206.83 1645.53 1210.75 1641.09 1214.26 1636.34 C 1212.48 1636.16 1210.71 1636.02 1208.96 1635.90 C 1210.62 1627.64 1214.41 1620.00 1216.97 1612.02 Z"
       opacity="1.00"
       fill="#8bc7fb" />
    <path
       id="path286"
       d=" M 1758.03 1640.29 C 1787.80 1632.39 1817.23 1623.17 1846.89 1614.82 C 1845.51 1640.92 1841.34 1666.85 1838.63 1692.86 C 1838.13 1696.26 1837.89 1699.86 1837.09 1703.26 C 1832.37 1699.87 1827.73 1696.40 1823.17 1692.85 C 1818.02 1688.20 1812.51 1684.03 1807.12 1679.71 C 1790.84 1666.46 1774.49 1653.29 1758.03 1640.29 Z"
       opacity="1.00"
       fill="#2d7208" />
    <path
       id="path288"
       d=" M 1897.05 1653.69 C 1911.85 1642.28 1926.27 1630.37 1941.04 1618.92 C 1957.82 1646.20 1974.56 1673.57 1990.94 1701.11 C 1959.60 1685.46 1928.21 1669.75 1897.05 1653.69 Z"
       opacity="1.00"
       fill="#ad73f1" />
    <path
       id="path290"
       d=" M 661.05 1631.94 C 664.32 1628.19 667.61 1624.44 670.94 1620.76 C 674.64 1624.85 678.63 1628.92 681.18 1633.90 C 674.44 1633.58 667.78 1632.28 661.05 1631.94 Z"
       opacity="1.00"
       fill="#f5f293" />
    <path
       id="path292"
       d=" M 1213.80 1662.73 C 1249.12 1650.36 1284.49 1638.14 1319.82 1625.83 C 1316.16 1639.81 1311.56 1653.57 1308.93 1667.81 C 1277.25 1665.59 1245.47 1665.10 1213.80 1662.73 Z"
       opacity="1.00"
       fill="#8ce526" />
    <path
       id="path294"
       d=" M 1157.96 1630.02 C 1175.05 1631.06 1191.96 1633.95 1208.96 1635.90 C 1210.71 1636.02 1212.48 1636.16 1214.26 1636.34 C 1210.75 1641.09 1206.83 1645.53 1203.10 1650.13 C 1191.80 1660.76 1182.15 1673.01 1171.28 1684.05 C 1167.11 1665.97 1161.84 1648.15 1157.96 1630.02 Z"
       opacity="1.00"
       fill="#ddcb27" />
    <path
       id="path296"
       d=" M 337.03 1634.98 C 354.60 1647.95 371.62 1661.65 389.00 1674.88 C 380.04 1691.43 371.50 1708.24 362.97 1725.03 C 360.77 1729.39 358.79 1733.90 356.25 1738.10 C 355.25 1732.71 354.13 1727.35 353.03 1722.00 C 351.65 1713.19 350.01 1704.43 348.20 1695.71 C 344.69 1675.43 340.99 1655.17 337.03 1634.98 Z"
       opacity="1.00"
       fill="#0dad45" />
    <path
       id="path298"
       d=" M 1695.29 1643.12 C 1695.98 1643.08 1697.36 1643.01 1698.05 1642.97 C 1699.56 1643.00 1702.58 1643.06 1704.09 1643.09 C 1701.17 1648.11 1698.10 1653.07 1694.89 1657.94 C 1689.00 1666.71 1683.33 1675.64 1677.69 1684.58 C 1672.89 1691.60 1668.32 1698.78 1663.83 1706.01 C 1640.60 1686.80 1616.79 1668.26 1593.63 1648.99 C 1627.43 1646.08 1661.46 1645.91 1695.29 1643.12 Z"
       opacity="1.00"
       fill="#388194" />
    <path
       id="path300"
       d=" M 1706.90 1655.21 C 1702.34 1668.37 1696.32 1680.99 1691.58 1694.08 C 1685.96 1692.68 1682.72 1687.14 1677.69 1684.58 C 1683.33 1675.64 1689.00 1666.71 1694.89 1657.94 C 1698.94 1657.24 1702.83 1656.06 1706.90 1655.21 Z"
       opacity="1.00"
       fill="#1ca330" />
    <path
       id="path302"
       d=" M 389.00 1674.88 C 394.08 1672.13 399.36 1669.71 404.82 1667.80 C 398.71 1688.85 392.74 1709.95 386.72 1731.03 C 378.62 1729.87 370.82 1727.22 362.97 1725.03 C 371.50 1708.24 380.04 1691.43 389.00 1674.88 Z"
       opacity="1.00"
       fill="#0eab4d" />
    <path
       id="path304"
       d=" M 872.66 1672.42 C 901.06 1671.11 929.44 1669.20 957.84 1668.03 C 967.10 1681.43 976.40 1694.83 985.99 1708.02 C 948.10 1696.50 910.51 1684.03 872.66 1672.42 Z"
       opacity="1.00"
       fill="#af4438" />
    <path
       id="path306"
       d=" M 1756.16 1678.92 C 1769.99 1690.36 1782.68 1703.12 1796.15 1715.00 C 1781.75 1738.22 1766.88 1761.17 1752.20 1784.22 C 1752.20 1749.09 1755.31 1714.03 1756.16 1678.92 Z"
       opacity="1.00"
       fill="#463f5d" />
    <path
       id="path308"
       d=" M 995.28 1679.82 C 1023.44 1696.70 1051.05 1714.48 1079.01 1731.69 C 1070.36 1734.05 1062.08 1737.53 1053.67 1740.58 C 1042.99 1744.04 1032.58 1748.21 1022.02 1751.98 C 1008.44 1756.02 995.55 1762.03 981.97 1766.02 C 986.00 1737.23 990.94 1708.57 995.28 1679.82 Z"
       opacity="1.00"
       fill="#3c5440" />
    <path
       id="path310"
       d=" M 1797.83 1690.38 C 1800.89 1686.80 1803.66 1682.94 1807.12 1679.71 C 1812.51 1684.03 1818.02 1688.20 1823.17 1692.85 C 1814.67 1692.60 1806.26 1691.16 1797.83 1690.38 Z"
       opacity="1.00"
       fill="#193ced" />
    <path
       id="path312"
       d=" M 1441.19 1689.77 C 1450.55 1713.50 1459.64 1737.33 1468.88 1761.11 C 1470.81 1765.90 1472.82 1770.67 1474.22 1775.66 C 1463.28 1777.65 1452.45 1780.14 1441.67 1782.82 C 1426.03 1785.96 1410.59 1789.97 1394.94 1793.02 C 1400.29 1778.84 1407.26 1765.30 1413.21 1751.35 C 1415.29 1746.95 1417.28 1742.51 1419.33 1738.12 C 1426.50 1721.95 1433.88 1705.87 1441.19 1689.77 Z"
       opacity="1.00"
       fill="#3081f0" />
    <path
       id="path314"
       d=" M 1790.96 1690.01 C 1792.68 1690.11 1796.11 1690.29 1797.83 1690.38 C 1806.26 1691.16 1814.67 1692.60 1823.17 1692.85 C 1827.73 1696.40 1832.37 1699.87 1837.09 1703.26 C 1837.89 1699.86 1838.13 1696.26 1838.63 1692.86 C 1858.40 1698.79 1881.83 1697.99 1903.04 1701.20 C 1884.40 1720.47 1866.35 1740.39 1846.43 1758.37 C 1828.45 1735.17 1808.67 1713.40 1790.96 1690.01 Z"
       opacity="1.00"
       fill="#c37882" />
    <path
       id="path316"
       d=" M 314.76 1712.58 C 324.89 1705.68 336.62 1700.21 348.20 1695.71 C 350.01 1704.43 351.65 1713.19 353.03 1722.00 C 340.10 1719.59 327.60 1715.37 314.76 1712.58 Z"
       opacity="1.00"
       fill="#0eab4d" />
    <path
       id="path318"
       d=" M 767.81 1738.99 C 797.72 1731.01 827.65 1722.97 857.77 1715.77 C 850.01 1749.19 842.43 1782.67 834.78 1816.12 C 811.71 1791.10 790.45 1764.41 767.81 1738.99 Z"
       opacity="1.00"
       fill="#9099c5" />
    <path
       id="path320"
       d=" M 1090.88 1800.33 C 1125.21 1774.33 1158.49 1746.94 1192.83 1720.95 C 1199.30 1770.95 1205.17 1821.04 1212.01 1870.99 C 1171.63 1847.50 1130.47 1824.98 1090.88 1800.33 Z"
       opacity="1.00"
       fill="#e0ed2f" />
    <path
       id="path322"
       d=" M 1386.99 1722.97 C 1398.15 1727.09 1408.81 1732.59 1419.33 1738.12 C 1417.28 1742.51 1415.29 1746.95 1413.21 1751.35 C 1403.95 1742.40 1395.33 1732.76 1386.99 1722.97 Z"
       opacity="1.00"
       fill="#097647" />
    <path
       id="path324"
       d=" M 1022.02 1751.98 C 1032.58 1748.21 1042.99 1744.04 1053.67 1740.58 C 1060.49 1753.57 1064.65 1768.17 1070.12 1781.90 C 1043.42 1786.43 1016.59 1790.11 989.95 1794.93 C 1000.51 1780.52 1012.40 1767.03 1022.02 1751.98 Z"
       opacity="1.00"
       fill="#3f5afa" />
    <path
       id="path326"
       d=" M 317.24 1742.73 C 327.83 1763.41 339.65 1783.65 348.95 1804.90 C 338.54 1821.96 327.33 1838.60 316.14 1855.19 C 315.19 1817.67 317.39 1780.23 317.24 1742.73 Z"
       opacity="1.00"
       fill="#24e6cf" />
    <path
       id="path328"
       d=" M 1468.88 1761.11 C 1477.54 1765.49 1486.65 1769.01 1495.19 1773.68 C 1477.31 1776.04 1459.42 1781.99 1441.67 1782.82 C 1452.45 1780.14 1463.28 1777.65 1474.22 1775.66 C 1472.82 1770.67 1470.81 1765.90 1468.88 1761.11 Z"
       opacity="1.00"
       fill="#097647" />
    <path
       id="path330"
       d=" M 1421.63 1791.43 C 1461.52 1787.58 1501.39 1783.50 1541.24 1779.19 C 1526.18 1802.14 1509.77 1824.20 1494.70 1847.15 C 1469.62 1829.78 1445.54 1810.47 1421.63 1791.43 Z"
       opacity="1.00"
       fill="#404e80" />
    <path
       id="path332"
       d=" M 505.01 1869.00 C 518.23 1840.92 531.39 1812.81 544.66 1784.76 C 546.55 1818.84 547.87 1852.99 548.94 1887.10 C 534.16 1881.40 519.66 1874.99 505.01 1869.00 Z"
       opacity="1.00"
       fill="#a72fbc" />
    <path
       id="path334"
       d=" M 1233.85 1863.65 C 1245.43 1846.97 1259.10 1831.73 1271.76 1815.86 C 1274.58 1839.18 1276.94 1862.56 1279.07 1885.95 C 1263.92 1878.66 1249.08 1870.74 1233.85 1863.65 Z"
       opacity="1.00"
       fill="#29ded9" />
    <path
       id="path336"
       d=" M 396.11 1882.23 C 414.42 1871.33 431.62 1858.64 450.09 1848.05 C 439.79 1871.82 428.90 1895.34 418.68 1919.15 C 414.23 1913.48 411.19 1906.89 407.03 1901.03 C 406.85 1900.68 406.49 1900.00 406.30 1899.66 C 403.20 1893.67 399.23 1888.19 396.11 1882.23 Z"
       opacity="1.00"
       fill="#1f07b0" />
    <path
       id="path338"
       d=" M 818.10 1891.84 C 826.14 1878.92 833.34 1865.48 841.65 1852.73 C 843.02 1870.14 844.53 1887.55 846.07 1904.97 C 836.45 1901.21 827.55 1895.91 818.10 1891.84 Z"
       opacity="1.00"
       fill="#e3782b" />
    <path
       id="path340"
       d=" M 1458.74 1939.72 C 1497.38 1922.30 1535.97 1904.68 1574.87 1887.83 C 1574.31 1909.27 1576.57 1930.62 1575.95 1952.06 C 1536.87 1948.06 1497.74 1944.39 1458.74 1939.72 Z"
       opacity="1.00"
       fill="#2c768c" />
    <path
       id="path342"
       d=" M 406.30 1899.66 C 406.49 1900.00 406.85 1900.68 407.03 1901.03 C 410.44 1928.63 414.09 1956.22 418.07 1983.76 C 401.26 1985.07 384.70 1988.51 367.90 1989.93 C 380.46 1959.74 393.38 1929.69 406.30 1899.66 Z"
       opacity="1.00"
       fill="#d0ff66" />
  </g>
</svg>
